<svg width="38" height="77" viewBox="0 0 38 77" fill="none" xmlns="http://www.w3.org/2000/svg">
<path d="M35.3682 31.3564H33.4883V23.7617C33.4883 21.9788 32.0378 20.5283 30.2549 20.5283H25.4424C25.1017 20.5283 24.7734 20.582 24.4648 20.6802V20.2275C24.4648 17.7813 22.4746 15.791 20.0283 15.791H14.0127C11.5664 15.791 9.57617 17.7813 9.57617 20.2275V33.5057H-10.5762V20.2275C-10.5762 17.7813 -12.5664 15.791 -15.0127 15.791H-21.0283C-23.4746 15.791 -25.4648 17.7813 -25.4648 20.2275V20.6802C-25.7734 20.582 -26.1017 20.5283 -26.4424 20.5283H-31.2549C-33.0378 20.5283 -34.4883 21.9788 -34.4883 23.7617V25.2186C-34.4883 25.8415 -33.9833 26.3465 -33.3604 26.3465C-32.7374 26.3465 -32.2324 25.8415 -32.2324 25.2186V23.7617C-32.2324 23.2227 -31.7939 22.7842 -31.2549 22.7842H-26.4424C-25.9034 22.7842 -25.4648 23.2227 -25.4648 23.7617V53.2383C-25.4648 53.7773 -25.9034 54.2158 -26.4424 54.2158H-31.2549C-31.7939 54.2158 -32.2324 53.7773 -32.2324 53.2383V30.0449C-32.2324 29.422 -32.7374 28.917 -33.3604 28.917C-33.9833 28.917 -34.4883 29.422 -34.4883 30.0449V31.3564H-36.3682C-37.8193 31.3564 -39 32.5372 -39 33.9883V43.0117C-39 44.4628 -37.8193 45.6436 -36.3682 45.6436H-34.4883V53.2383C-34.4883 55.0212 -33.0378 56.4717 -31.2549 56.4717H-26.4424C-26.1017 56.4717 -25.7734 56.418 -25.4648 56.3198V56.7725C-25.4648 59.2187 -23.4746 61.209 -21.0283 61.209H-15.0127C-12.5664 61.209 -10.5762 59.2187 -10.5762 56.7725V43.4943H-8.93451C-8.31159 43.4943 -7.80658 42.9893 -7.80658 42.3664C-7.80658 41.7435 -8.31159 41.2385 -8.93451 41.2385H-10.5762V35.7615H9.57617V41.2385H-4.04501C-4.66793 41.2385 -5.17294 41.7435 -5.17294 42.3664C-5.17294 42.9893 -4.66793 43.4943 -4.04501 43.4943H9.57617V56.7725C9.57617 59.2187 11.5664 61.209 14.0127 61.209H20.0283C22.4746 61.209 24.4648 59.2187 24.4648 56.7725V56.3198C24.7734 56.418 25.1017 56.4717 25.4424 56.4717H30.2549C32.0378 56.4717 33.4883 55.0212 33.4883 53.2383V51.7151C33.4883 51.0922 32.9833 50.5872 32.3604 50.5872C31.7374 50.5872 31.2324 51.0922 31.2324 51.7151V53.2383C31.2324 53.7773 30.7939 54.2158 30.2549 54.2158H25.4424C24.9034 54.2158 24.4648 53.7773 24.4648 53.2383V23.7617C24.4648 23.2227 24.9034 22.7842 25.4424 22.7842H30.2549C30.7939 22.7842 31.2324 23.2227 31.2324 23.7617V46.8467C31.2324 47.4696 31.7374 47.9746 32.3604 47.9746C32.9833 47.9746 33.4883 47.4696 33.4883 46.8467V45.6436H35.3682C36.8193 45.6436 38 44.4628 38 43.0117V33.9883C38 32.5372 36.8193 31.3564 35.3682 31.3564ZM-36.3682 43.3877C-36.5754 43.3877 -36.7441 43.219 -36.7441 43.0117V33.9883C-36.7441 33.781 -36.5754 33.6123 -36.3682 33.6123H-34.4883V43.3877H-36.3682ZM-12.832 56.7725C-12.832 57.9748 -13.8103 58.9531 -15.0127 58.9531H-21.0283C-22.2307 58.9531 -23.209 57.9748 -23.209 56.7725V20.2275C-23.209 19.0252 -22.2307 18.0469 -21.0283 18.0469H-15.0127C-13.8103 18.0469 -12.832 19.0252 -12.832 20.2275V56.7725ZM22.209 56.7725C22.209 57.9748 21.2307 58.9531 20.0283 58.9531H14.0127C12.8103 58.9531 11.832 57.9748 11.832 56.7725V20.2275C11.832 19.0252 12.8103 18.0469 14.0127 18.0469H20.0283C21.2307 18.0469 22.209 19.0252 22.209 20.2275V56.7725ZM35.7441 43.0117C35.7441 43.219 35.5754 43.3877 35.3682 43.3877H33.4883V33.6123H35.3682C35.5754 33.6123 35.7441 33.781 35.7441 33.9883V43.0117Z" fill="#343434"/>
</svg>
