<svg width="45" height="85" viewBox="0 0 45 85" fill="none" xmlns="http://www.w3.org/2000/svg">
<path d="M82.0947 34.6143H80.0195V26.2305C80.0195 24.2624 78.4183 22.6611 76.4502 22.6611H71.1377C70.7617 22.6611 70.3993 22.7204 70.0586 22.8288V22.3291C70.0586 19.6287 67.8615 17.4316 65.1611 17.4316H58.5205C55.8201 17.4316 53.623 19.6287 53.623 22.3291V36.9868H31.377V22.3291C31.377 19.6287 29.1799 17.4316 26.4795 17.4316H19.8389C17.1385 17.4316 14.9414 19.6287 14.9414 22.3291V22.8288C14.6007 22.7204 14.2383 22.6611 13.8623 22.6611H8.5498C6.58169 22.6611 4.98047 24.2624 4.98047 26.2305V27.8387C4.98047 28.5263 5.53795 29.0838 6.22559 29.0838C6.91322 29.0838 7.4707 28.5263 7.4707 27.8387V26.2305C7.4707 25.6355 7.9548 25.1514 8.5498 25.1514H13.8623C14.4573 25.1514 14.9414 25.6355 14.9414 26.2305V58.7695C14.9414 59.3645 14.4573 59.8486 13.8623 59.8486H8.5498C7.9548 59.8486 7.4707 59.3645 7.4707 58.7695V33.1664C7.4707 32.4788 6.91322 31.9213 6.22559 31.9213C5.53795 31.9213 4.98047 32.4788 4.98047 33.1664V34.6143H2.90527C1.30339 34.6143 0 35.9176 0 37.5195V47.4805C0 49.0824 1.30339 50.3857 2.90527 50.3857H4.98047V58.7695C4.98047 60.7376 6.58169 62.3389 8.5498 62.3389H13.8623C14.2383 62.3389 14.6007 62.2796 14.9414 62.1712V62.6709C14.9414 65.3713 17.1385 67.5684 19.8389 67.5684H26.4795C29.1799 67.5684 31.377 65.3713 31.377 62.6709V48.0132H33.1892C33.8768 48.0132 34.4343 47.4557 34.4343 46.7681C34.4343 46.0805 33.8768 45.523 33.1892 45.523H31.377V39.477H53.623V45.523H38.5867C37.899 45.523 37.3416 46.0805 37.3416 46.7681C37.3416 47.4557 37.899 48.0132 38.5867 48.0132H53.623V62.6709C53.623 65.3713 55.8201 67.5684 58.5205 67.5684H65.1611C67.8615 67.5684 70.0586 65.3713 70.0586 62.6709V62.1712C70.3993 62.2796 70.7617 62.3389 71.1377 62.3389H76.4502C78.4183 62.3389 80.0195 60.7376 80.0195 58.7695V57.0881C80.0195 56.4005 79.4621 55.843 78.7744 55.843C78.0868 55.843 77.5293 56.4005 77.5293 57.0881V58.7695C77.5293 59.3645 77.0452 59.8486 76.4502 59.8486H71.1377C70.5427 59.8486 70.0586 59.3645 70.0586 58.7695V26.2305C70.0586 25.6355 70.5427 25.1514 71.1377 25.1514H76.4502C77.0452 25.1514 77.5293 25.6355 77.5293 26.2305V51.7139C77.5293 52.4015 78.0868 52.959 78.7744 52.959C79.4621 52.959 80.0195 52.4015 80.0195 51.7139V50.3857H82.0947C83.6966 50.3857 85 49.0824 85 47.4805V37.5195C85 35.9176 83.6966 34.6143 82.0947 34.6143ZM2.90527 47.8955C2.6765 47.8955 2.49023 47.7092 2.49023 47.4805V37.5195C2.49023 37.2908 2.6765 37.1045 2.90527 37.1045H4.98047V47.8955H2.90527ZM28.8867 62.6709C28.8867 63.9982 27.8068 65.0781 26.4795 65.0781H19.8389C18.5116 65.0781 17.4316 63.9982 17.4316 62.6709V22.3291C17.4316 21.0018 18.5116 19.9219 19.8389 19.9219H26.4795C27.8068 19.9219 28.8867 21.0018 28.8867 22.3291V62.6709ZM67.5684 62.6709C67.5684 63.9982 66.4884 65.0781 65.1611 65.0781H58.5205C57.1932 65.0781 56.1133 63.9982 56.1133 62.6709V22.3291C56.1133 21.0018 57.1932 19.9219 58.5205 19.9219H65.1611C66.4884 19.9219 67.5684 21.0018 67.5684 22.3291V62.6709ZM82.5098 47.4805C82.5098 47.7092 82.3235 47.8955 82.0947 47.8955H80.0195V37.1045H82.0947C82.3235 37.1045 82.5098 37.2908 82.5098 37.5195V47.4805Z" fill="#292828"/>
</svg>
