<svg width="95" height="95" viewBox="0 0 95 95" fill="none" xmlns="http://www.w3.org/2000/svg">
<path d="M91.7529 38.6865H89.4336V29.3164C89.4336 27.1167 87.644 25.3271 85.4443 25.3271H79.5068C79.0866 25.3271 78.6815 25.3934 78.3008 25.5145V24.9561C78.3008 21.9379 75.8453 19.4824 72.8271 19.4824H65.4053C62.3872 19.4824 59.9316 21.9379 59.9316 24.9561V41.3382H35.0684V24.9561C35.0684 21.9379 32.6128 19.4824 29.5947 19.4824H22.1729C19.1547 19.4824 16.6992 21.9379 16.6992 24.9561V25.5145C16.3185 25.3934 15.9134 25.3271 15.4932 25.3271H9.55566C7.35601 25.3271 5.56641 27.1167 5.56641 29.3164V31.1138C5.56641 31.8823 6.18947 32.5054 6.95801 32.5054C7.72654 32.5054 8.34961 31.8823 8.34961 31.1138V29.3164C8.34961 28.6514 8.89066 28.1104 9.55566 28.1104H15.4932C16.1582 28.1104 16.6992 28.6514 16.6992 29.3164V65.6836C16.6992 66.3486 16.1582 66.8896 15.4932 66.8896H9.55566C8.89066 66.8896 8.34961 66.3486 8.34961 65.6836V37.0684C8.34961 36.2998 7.72654 35.6768 6.95801 35.6768C6.18947 35.6768 5.56641 36.2998 5.56641 37.0684V38.6865H3.24707C1.45673 38.6865 0 40.1433 0 41.9336V53.0664C0 54.8567 1.45673 56.3135 3.24707 56.3135H5.56641V65.6836C5.56641 67.8833 7.35601 69.6729 9.55566 69.6729H15.4932C15.9134 69.6729 16.3185 69.6066 16.6992 69.4854V70.0439C16.6992 73.062 19.1547 75.5176 22.1729 75.5176H29.5947C32.6128 75.5176 35.0684 73.062 35.0684 70.0439V53.6618H37.0938C37.8623 53.6618 38.4854 53.0388 38.4854 52.2702C38.4854 51.5017 37.8623 50.8786 37.0938 50.8786H35.0684V44.1214H59.9316V50.8786H43.1263C42.3578 50.8786 41.7347 51.5017 41.7347 52.2702C41.7347 53.0388 42.3578 53.6618 43.1263 53.6618H59.9316V70.0439C59.9316 73.062 62.3872 75.5176 65.4053 75.5176H72.8271C75.8453 75.5176 78.3008 73.062 78.3008 70.0439V69.4854C78.6815 69.6066 79.0866 69.6729 79.5068 69.6729H85.4443C87.644 69.6729 89.4336 67.8833 89.4336 65.6836V63.8044C89.4336 63.0358 88.8105 62.4128 88.042 62.4128C87.2735 62.4128 86.6504 63.0358 86.6504 63.8044V65.6836C86.6504 66.3486 86.1093 66.8896 85.4443 66.8896H79.5068C78.8418 66.8896 78.3008 66.3486 78.3008 65.6836V29.3164C78.3008 28.6514 78.8418 28.1104 79.5068 28.1104H85.4443C86.1093 28.1104 86.6504 28.6514 86.6504 29.3164V57.7979C86.6504 58.5664 87.2735 59.1895 88.042 59.1895C88.8105 59.1895 89.4336 58.5664 89.4336 57.7979V56.3135H91.7529C93.5433 56.3135 95 54.8567 95 53.0664V41.9336C95 40.1433 93.5433 38.6865 91.7529 38.6865ZM3.24707 53.5303C2.99139 53.5303 2.7832 53.3221 2.7832 53.0664V41.9336C2.7832 41.6779 2.99139 41.4697 3.24707 41.4697H5.56641V53.5303H3.24707ZM32.2852 70.0439C32.2852 71.5274 31.0782 72.7344 29.5947 72.7344H22.1729C20.6894 72.7344 19.4824 71.5274 19.4824 70.0439V24.9561C19.4824 23.4726 20.6894 22.2656 22.1729 22.2656H29.5947C31.0782 22.2656 32.2852 23.4726 32.2852 24.9561V70.0439ZM75.5176 70.0439C75.5176 71.5274 74.3106 72.7344 72.8271 72.7344H65.4053C63.9218 72.7344 62.7148 71.5274 62.7148 70.0439V24.9561C62.7148 23.4726 63.9218 22.2656 65.4053 22.2656H72.8271C74.3106 22.2656 75.5176 23.4726 75.5176 24.9561V70.0439ZM92.2168 53.0664C92.2168 53.3221 92.0086 53.5303 91.7529 53.5303H89.4336V41.4697H91.7529C92.0086 41.4697 92.2168 41.6779 92.2168 41.9336V53.0664Z" fill="white"/>
</svg>
