<svg width="20" height="20" viewBox="0 0 20 20" fill="none" xmlns="http://www.w3.org/2000/svg">
<path d="M17.7837 9.48865C17.5185 9.22348 17.1966 9.09099 16.8177 9.09099H16.3634V6.36356C16.3634 4.62117 15.7386 3.12509 14.4885 1.87508C13.2386 0.625028 11.7426 0 9.99999 0C8.2574 0 6.76117 0.625028 5.51131 1.87503C4.26126 3.12509 3.63643 4.62112 3.63643 6.36356V9.09099H3.18195C2.80329 9.09099 2.48125 9.22348 2.21607 9.48865C1.9509 9.75363 1.81836 10.0757 1.81836 10.4547V18.6364C1.81836 19.0151 1.95095 19.3372 2.21607 19.6024C2.48125 19.8674 2.80329 20 3.18195 20H16.818C17.197 20 17.5188 19.8675 17.7841 19.6024C18.049 19.3372 18.1818 19.0151 18.1818 18.6364V10.4545C18.182 10.0758 18.049 9.75383 17.7837 9.48865ZM13.6363 9.09099H6.3637V6.36356C6.3637 5.35983 6.71888 4.50276 7.42908 3.79266C8.13938 3.08245 8.9963 2.72743 10.0001 2.72743C11.0041 2.72743 11.8608 3.0824 12.5711 3.79266C13.2811 4.50271 13.6363 5.35983 13.6363 6.36356V9.09099Z" fill="#484848"/>
</svg>
