<svg width="20" height="20" viewBox="0 0 20 20" fill="none" xmlns="http://www.w3.org/2000/svg">
<g clip-path="url(#clip0_24_45)">
<path d="M10 10.0001C11.3806 10.0001 12.559 9.51166 13.5354 8.53517C14.5119 7.55868 15.0003 6.38033 15.0003 4.99994C15.0003 3.61978 14.5119 2.44139 13.5354 1.46467C12.5586 0.488223 11.3803 0 10 0C8.61984 0 7.44127 0.488223 6.46482 1.46467C5.48819 2.44139 4.99988 3.61974 4.99988 4.99994C4.99988 6.38033 5.48819 7.55868 6.46482 8.53517C7.44154 9.51166 8.6198 10.0001 10 10.0001Z" fill="#484848"/>
<path d="M19.1211 15.28C19.0906 14.8418 19.0298 14.3686 18.9388 13.8607C18.8476 13.3528 18.7325 12.8821 18.5936 12.4479C18.4546 12.014 18.268 11.5907 18.0336 11.1783C17.7993 10.766 17.5302 10.4145 17.2262 10.1236C16.9222 9.83276 16.5512 9.60071 16.1131 9.42713C15.6745 9.25359 15.1905 9.16667 14.661 9.16667C14.583 9.16667 14.4006 9.25998 14.1141 9.44665C13.8279 9.63332 13.5045 9.8417 13.1442 10.0718C12.784 10.3016 12.315 10.5101 11.738 10.6964C11.1607 10.8831 10.5814 10.9764 9.99955 10.9764C9.41797 10.9764 8.83858 10.8831 8.26137 10.6964C7.68422 10.5101 7.21533 10.3016 6.85508 10.0718C6.49488 9.8417 6.17157 9.63336 5.88516 9.44665C5.59861 9.25998 5.41641 9.16667 5.33828 9.16667C4.80879 9.16667 4.3248 9.25359 3.88647 9.42713C3.44805 9.60071 3.077 9.83294 2.77312 10.1236C2.46933 10.4145 2.2002 10.766 1.96592 11.1783C1.73163 11.5907 1.54501 12.0141 1.40609 12.4479C1.26722 12.8821 1.15215 13.3528 1.06103 13.8607C0.969814 14.3686 0.909066 14.8415 0.878646 15.28C0.848271 15.7186 0.83313 16.1678 0.83313 16.6279C0.83313 17.6694 1.15005 18.4921 1.78367 19.0954C2.41743 19.6985 3.25952 20 4.30984 20H15.6903C16.7405 20 17.5825 19.6985 18.2164 19.0954C18.8504 18.4921 19.1671 17.6695 19.1671 16.6279C19.167 16.1678 19.1518 15.7186 19.1211 15.28Z" fill="#484848"/>
</g>
<defs>
<clipPath id="clip0_24_45">
<rect width="20" height="20" fill="white"/>
</clipPath>
</defs>
</svg>
