<svg width="22" height="22" viewBox="0 0 22 22" fill="none" xmlns="http://www.w3.org/2000/svg">
<path d="M8.53085 11L17.1943 2.33669C17.3412 2.18976 17.4147 2.02067 17.4147 1.82965C17.4147 1.63863 17.3413 1.46954 17.1943 1.32292L16.092 0.22059C15.945 0.0737359 15.776 0 15.5854 0C15.3943 0 15.2253 0.0737359 15.0784 0.22059L4.80559 10.4929C4.65866 10.6398 4.58539 10.8089 4.58539 10.9999C4.58539 11.191 4.65866 11.36 4.80559 11.507L15.0778 21.7793C15.225 21.9264 15.3942 21.9998 15.5852 21.9998C15.776 21.9998 15.945 21.9264 16.0919 21.7793L17.1943 20.6777C17.3411 20.5308 17.4144 20.3616 17.4144 20.1704C17.4144 19.9796 17.3412 19.8105 17.1943 19.6636L8.53085 11Z" fill="white"/>
</svg>
